Coordinates
version=1
nRows=10
nColumns=33
inDegrees=yes

Units are S.I. units (second, meters, Newtons, ...)
Angles are in degrees.

endheader
time	ground_thorax_rot_x	ground_thorax_rot_y	ground_thorax_rot_z	ground_thorax_tx	ground_thorax_ty	ground_thorax_tz	clav_prot_r	clav_elev_r	scapula_abduction_r	scapula_elevation_r	scapula_upward_rot_r	scapula_winging_r	shoulder_elv_r	plane_of_elev_r	axial_rot_r	elbow_flexion_r	pro_sup_r	wrist_flex_r	wrist_dev_r	clav_prot_l	clav_elev_l	scapula_abduction_l	scapula_elevation_l	scapula_upward_rot_l	scapula_winging_l	shoulder_elv_l	plane_of_elev_l	axial_rot_l	elbow_flexion_l	pro_sup_l	wrist_flex_l	wrist_dev_l
      0.89000000	      1.62087341	      5.80214769	     12.25099120	     -0.11353898	      1.03522236	      0.03234259	      5.00499677	     10.78847786	     20.08168366	      6.43848206	     23.54731792	    -11.15958734	      5.21781272	    -72.99405115	     56.92198567	     46.88473383	    -41.81555941	     70.00000021	    -24.99999983	     10.79012880	     -2.90847286	    -15.41024179	    -21.98909502	    -41.64442192	     -0.93070759	     62.14563686	    -38.48799553	     -4.81728697	     62.56769234	     19.73171981	      2.36531405	    -24.99999983
      0.90000000	      1.64416171	      6.15779406	     11.96289044	     -0.11304574	      1.03555336	      0.03259594	      4.16783910	     10.97045258	     19.04271250	      6.37882233	     24.27882326	    -10.91941037	      4.34658907	    -72.85370523	     57.29259071	     46.99268470	    -43.29735364	     70.00000021	    -24.99999983	     11.11668401	     -3.33064583	    -16.11639229	    -21.73300772	    -42.01800495	     -0.63603482	     61.92919660	    -38.03382163	     -4.36884351	     61.98929174	     21.06443003	      1.12845193	    -24.99999983
      0.91000000	      1.55010315	      6.15431266	     11.94907708	     -0.11299022	      1.03542145	      0.03251996	      4.22071954	     10.82326447	     19.01643621	      6.31994201	     24.07158070	    -10.88273857	      4.06312134	    -72.72872945	     57.46351201	     47.12857175	    -43.14050242	     70.00000021	    -24.99999983	     11.10761378	     -3.45281138	    -16.11744884	    -21.63590197	    -42.06507190	     -0.63152129	     61.88693192	    -38.05282954	     -4.36711336	     61.55445304	     21.11493668	      1.14237186	    -24.99999983
      0.92000000	      1.43643178	      6.12583729	     11.83677923	     -0.11303525	      1.03567378	      0.03231766	      4.26371078	     10.57099638	     18.99077829	      6.17826870	     23.84860752	    -10.83513036	      3.69041153	    -72.29125491	     57.50061129	     46.54002082	    -42.01504473	     70.00000021	    -24.99999983	     11.16768857	     -3.42630421	    -16.18620505	    -21.59931365	    -41.93390313	     -0.57835183	     61.51708452	    -37.66112933	     -4.17739219	     60.74323445	     21.27020611	      1.14495234	    -24.99999983
      0.93000000	      1.37611877	      6.09765933	     11.98095494	     -0.11286530	      1.03548073	      0.03228490	      4.27634458	     10.47738029	     18.90662698	      6.15207947	     23.68587162	    -10.78499843	      3.42046314	    -72.21407429	     57.60593209	     46.63750403	    -41.78273830	     70.00000021	    -24.99999983	     11.14592565	     -3.55451674	    -16.16146133	    -21.49273387	    -41.96888660	     -0.58249607	     61.41299771	    -37.65093660	     -4.13741992	     60.21938847	     21.32521310	      1.17978595	    -24.99999983
      0.94000000	      1.32499221	      6.09638333	     11.99072237	     -0.11281089	      1.03541445	      0.03219766	      4.33106382	     10.32207894	     18.92015403	      6.07410144	     23.51798787	    -10.76314030	      3.15406015	    -72.00030670	     57.72275004	     46.54609799	    -41.47247358	     70.00000021	    -24.99999983	     11.15276988	     -3.71379792	    -16.16150280	    -21.31498192	    -41.91578537	     -0.55728451	     61.32100626	    -37.46962107	     -4.08527808	     59.60829928	     21.38536227	      1.22812172	    -24.99999983
      0.95000000	      1.28770604	      6.08642087	     11.96753127	     -0.11267771	      1.03535760	      0.03206205	      4.39440970	     10.14513980	     18.95636642	      5.97711766	     23.34976579	    -10.74284363	      2.86765371	    -71.71793255	     57.84456406	     46.26029460	    -41.09277264	     70.00000021	    -24.99999983	     11.15836188	     -3.85863520	    -16.15074312	    -21.13487158	    -41.82726664	     -0.53205591	     61.18754166	    -37.21118962	     -3.96944987	     58.98522826	     21.44786313	      1.27844272	    -24.99999983
      0.96000000	      1.22806957	      6.07304380	     11.95190555	     -0.11258976	      1.03522086	      0.03186032	      4.45938340	      9.98480827	     19.02140773	      5.88236640	     23.21900523	    -10.73708116	      2.55600845	    -71.38373534	     57.97813706	     45.90245066	    -40.70892540	     70.00000021	    -24.99999983	     11.16925318	     -3.96804924	    -16.14290336	    -20.97941009	    -41.71862166	     -0.50466119	     61.03635906	    -36.92685004	     -3.81084042	     58.45946741	     21.51128043	      1.31596315	    -24.99999983
      0.97000000	      1.11278209	      6.04404996	     11.97003971	     -0.11240445	      1.03467698	      0.03154850	      4.49276689	     10.04829564	     19.09441979	      5.92439718	     23.25297136	    -10.77114656	      1.78357356	    -70.80280550	     58.04690341	     45.08267977	    -39.88016394	     70.00000021	    -24.99999983	     11.26285058	     -3.78836851	    -16.24328136	    -21.04760728	    -41.50068032	     -0.43977291	     60.49618231	    -36.49031016	     -3.32570308	     58.12160027	     21.69855817	      1.30774878	    -24.99999983
      0.98000000	      1.07437153	      6.08432528	     12.02128086	     -0.11228252	      1.03424732	      0.03139240	      4.54813747	      9.93280237	     19.14323654	      5.86208714	     23.14187088	    -10.76590983	      1.62675932	    -70.65820027	     58.09078038	     45.08996232	    -39.84297729	     70.00000021	    -24.99999983	     11.28816380	     -3.94266537	    -16.27238432	    -20.86846375	    -41.43473119	     -0.40488820	     60.50158464	    -36.32154428	     -3.33996162	     57.84092022	     21.74433416	      1.31578708	    -24.99999983
